<?xml version="1.0" encoding="UTF-8"?>
<svg xmlns="http://www.w3.org/2000/svg" xmlns:xlink="http://www.w3.org/1999/xlink" width="304px" height="190px" viewBox="0 0 304 190" version="1.1">
<defs>
<clipPath id="clip1">
  <path d="M 75.613281 36.320312 L 228.015625 36.320312 L 228.015625 153.835938 L 75.613281 153.835938 Z M 75.613281 36.320312 "/>
</clipPath>
<clipPath id="clip2">
  <path d="M 25 0.078125 L 216 0.078125 L 216 190 L 25 190 Z M 25 0.078125 "/>
</clipPath>
</defs>
<g id="surface1">
<g clip-path="url(#clip1)" clip-rule="nonzero">
<path style=" stroke:none;fill-rule:nonzero;fill:rgb(100%,100%,100%);fill-opacity:1;" d="M 137.160156 137.046875 L 143.441406 137.046875 C 144 139.285156 144.28125 142.082031 144.28125 145.441406 C 144.28125 148.65625 144 151.457031 143.441406 153.835938 L 126.695312 153.835938 C 126.136719 151.457031 125.855469 148.65625 125.855469 145.441406 C 125.855469 142.082031 126.136719 139.285156 126.695312 137.046875 L 120.414062 137.046875 C 119.855469 134.667969 119.578125 131.871094 119.578125 128.652344 C 119.578125 125.296875 119.855469 122.496094 120.414062 120.257812 L 114.132812 120.257812 C 113.574219 117.878906 113.296875 115.082031 113.296875 111.863281 C 113.296875 108.507812 113.574219 105.710938 114.132812 103.472656 L 93.199219 103.472656 C 93.757812 105.710938 94.035156 108.507812 94.035156 111.863281 C 94.035156 115.082031 93.757812 117.878906 93.199219 120.257812 C 93.757812 122.496094 94.035156 125.296875 94.035156 128.652344 C 94.035156 131.871094 93.757812 134.667969 93.199219 137.046875 C 93.757812 139.285156 94.035156 142.082031 94.035156 145.441406 C 94.035156 148.65625 93.757812 151.457031 93.199219 153.835938 L 76.453125 153.835938 C 75.894531 151.457031 75.613281 148.65625 75.613281 145.441406 C 75.613281 142.082031 75.894531 139.285156 76.453125 137.046875 C 75.894531 134.667969 75.613281 131.871094 75.613281 128.652344 C 75.613281 125.296875 75.894531 122.496094 76.453125 120.257812 C 75.894531 117.878906 75.613281 115.082031 75.613281 111.863281 C 75.613281 108.507812 75.894531 105.710938 76.453125 103.472656 C 75.894531 101.09375 75.613281 98.292969 75.613281 95.078125 C 75.613281 91.71875 75.894531 88.921875 76.453125 86.683594 C 75.894531 84.304688 75.613281 81.507812 75.613281 78.289062 C 75.613281 74.929688 75.894531 72.132812 76.453125 69.894531 C 75.894531 67.515625 75.613281 64.71875 75.613281 61.5 C 75.613281 58.144531 75.894531 55.34375 76.453125 53.105469 C 75.894531 50.730469 75.613281 47.929688 75.613281 44.714844 C 75.613281 41.355469 75.894531 38.558594 76.453125 36.320312 L 135.066406 36.320312 C 135.625 38.558594 135.90625 41.355469 135.90625 44.714844 C 135.90625 47.929688 135.625 50.730469 135.066406 53.105469 L 143.441406 53.105469 C 144 55.34375 144.28125 58.144531 144.28125 61.5 C 144.28125 64.71875 144 67.515625 143.441406 69.894531 L 139.253906 69.894531 C 139.8125 72.132812 140.09375 74.929688 140.09375 78.289062 C 140.09375 81.507812 139.8125 84.304688 139.253906 86.683594 L 126.695312 86.683594 C 127.253906 88.921875 127.53125 91.71875 127.53125 95.078125 C 127.53125 98.292969 127.253906 101.09375 126.695312 103.472656 L 130.882812 103.472656 C 131.441406 105.710938 131.71875 108.507812 131.71875 111.863281 C 131.71875 115.082031 131.441406 117.878906 130.882812 120.257812 L 137.160156 120.257812 C 137.71875 122.496094 138 125.296875 138 128.652344 C 138 131.871094 137.71875 134.667969 137.160156 137.046875 Z M 122.507812 86.683594 C 121.949219 84.304688 121.671875 81.507812 121.671875 78.289062 C 121.671875 74.929688 121.949219 72.132812 122.507812 69.894531 C 121.949219 67.515625 121.671875 64.71875 121.671875 61.5 C 121.671875 58.144531 121.949219 55.34375 122.507812 53.105469 L 93.199219 53.105469 C 93.757812 55.34375 94.035156 58.144531 94.035156 61.5 C 94.035156 64.71875 93.757812 67.515625 93.199219 69.894531 C 93.757812 72.132812 94.035156 74.929688 94.035156 78.289062 C 94.035156 81.507812 93.757812 84.304688 93.199219 86.683594 Z M 228.015625 61.5 C 228.015625 64.71875 227.738281 67.515625 227.179688 69.894531 C 227.738281 72.132812 228.015625 74.929688 228.015625 78.289062 C 228.015625 81.507812 227.738281 84.304688 227.179688 86.683594 L 218.804688 86.683594 C 219.363281 88.921875 219.644531 91.71875 219.644531 95.078125 C 219.644531 98.292969 219.363281 101.09375 218.804688 103.472656 L 176.9375 103.472656 C 177.496094 105.710938 177.773438 108.507812 177.773438 111.863281 C 177.773438 115.082031 177.496094 117.878906 176.9375 120.257812 C 177.496094 122.496094 177.773438 125.296875 177.773438 128.652344 C 177.773438 131.871094 177.496094 134.667969 176.9375 137.046875 C 177.496094 139.285156 177.773438 142.082031 177.773438 145.441406 C 177.773438 148.65625 177.496094 151.457031 176.9375 153.835938 L 160.191406 153.835938 C 159.632812 151.457031 159.351562 148.65625 159.351562 145.441406 C 159.351562 142.082031 159.632812 139.285156 160.191406 137.046875 C 159.632812 134.667969 159.351562 131.871094 159.351562 128.652344 C 159.351562 125.296875 159.632812 122.496094 160.191406 120.257812 C 159.632812 117.878906 159.351562 115.082031 159.351562 111.863281 C 159.351562 108.507812 159.632812 105.710938 160.191406 103.472656 C 159.632812 101.09375 159.351562 98.292969 159.351562 95.078125 C 159.351562 91.71875 159.632812 88.921875 160.191406 86.683594 C 159.632812 84.304688 159.351562 81.507812 159.351562 78.289062 C 159.351562 74.929688 159.632812 72.132812 160.191406 69.894531 C 159.632812 67.515625 159.351562 64.71875 159.351562 61.5 C 159.351562 58.144531 159.632812 55.34375 160.191406 53.105469 C 159.632812 50.730469 159.351562 47.929688 159.351562 44.714844 C 159.351562 41.355469 159.632812 38.558594 160.191406 36.320312 L 218.804688 36.320312 C 219.363281 38.558594 219.644531 41.355469 219.644531 44.714844 C 219.644531 47.929688 219.363281 50.730469 218.804688 53.105469 L 227.179688 53.105469 C 227.738281 55.34375 228.015625 58.144531 228.015625 61.5 Z M 210.433594 86.683594 C 209.875 84.304688 209.59375 81.507812 209.59375 78.289062 C 209.59375 74.929688 209.875 72.132812 210.433594 69.894531 C 209.875 67.515625 209.59375 64.71875 209.59375 61.5 C 209.59375 58.144531 209.875 55.34375 210.433594 53.105469 L 176.9375 53.105469 C 177.496094 55.34375 177.773438 58.144531 177.773438 61.5 C 177.773438 64.71875 177.496094 67.515625 176.9375 69.894531 C 177.496094 72.132812 177.773438 74.929688 177.773438 78.289062 C 177.773438 81.507812 177.496094 84.304688 176.9375 86.683594 Z M 210.433594 86.683594 "/>
</g>
<g clip-path="url(#clip2)" clip-rule="nonzero">
<path style="fill-rule:nonzero;fill:rgb(100%,100%,100%);fill-opacity:1;stroke-width:1;stroke-linecap:butt;stroke-linejoin:miter;stroke:rgb(100%,100%,100%);stroke-opacity:1;stroke-miterlimit:4;" d="M 280.758869 41.214063 L 280.758869 0.000000000000008335 L 33.561689 0.000000000000008335 L 33.561689 247.198047 L 280.758869 247.198047 L 280.758869 205.983984 L 266.984404 205.983984 L 266.984404 233.421094 L 47.336154 233.421094 L 47.336154 13.776953 L 266.984404 13.776953 L 266.984404 41.214063 Z M 280.758869 41.214063 " transform="matrix(0.767385,0,0,0.769231,0.057776,-0.000000000000006412)"/>
</g>
</g>
</svg>
